<?xml version="1.0" encoding="UTF-8"?>
<svg id="Camada_2" data-name="Camada 2" xmlns="http://www.w3.org/2000/svg" viewBox="0 0 1472.98 261.24">
  <defs>
    <style>
      .cls-1 {
        font-family: Arboria-BookItalic, Arboria;
        font-size: 101.27px;
        font-style: italic;
      }

      .cls-2 {
        letter-spacing: 0em;
      }

      .cls-3 {
        letter-spacing: -.01em;
      }

      .cls-4 {
        letter-spacing: 0em;
      }

      .cls-5 {
        letter-spacing: 0em;
      }

      .cls-6 {
        letter-spacing: 0em;
      }

      .cls-7 {
        letter-spacing: 0em;
      }
    </style>
  </defs>
  <g id="black">
    <g id="Gray_cópia" data-name="Gray cópia">
      <g>
        <g>
          <path d="M168.15,118.77c.16-.91.32-1.8.49-2.69-6-4.4-11.78-8.08-17.18-10.93-5.82-3.07-13.68-6.53-23.37-10.27-10.73-4.11-18.26-7.74-23.02-11.11-5.11-3.61-7.7-7.71-7.7-12.17,0-10.21,10.24-15.38,30.44-15.38,15.32,0,29.95,2.4,43.48,7.14,6.22,2.14,10.77.19,14.32-6.12l16.39-29.43c3.05-5.53,2.14-9.34-2.95-12.36-6.49-3.9-16.32-7.42-29.22-10.48C156.88,1.89,142.74.33,127.8.33c-30.43,0-55.08,6.63-73.27,19.7-17.98,12.92-27.1,33.2-27.1,60.26,0,9.26,1.63,17.6,4.84,24.77,3.2,7.16,7.81,13.27,13.68,18.18,6,5.02,12.18,9.21,18.38,12.48,6.24,3.28,13.75,6.51,22.33,9.59,21.44,7.62,31.43,14.6,31.43,21.95,0,11.7-12.58,17.39-38.46,17.39-15.37,0-31.06-3.43-46.63-10.2-1.29-.56-2.8-1.05-4.44-1.05-2.93,0-6.26,1.58-9.41,7.22L1.75,211.74c-3.04,5.71-2.15,9.52,2.91,12.33,19.03,10.94,46.27,16.47,80.99,16.47,29.75,0,54.62-7.3,73.91-21.68,6.48-4.84,11.88-10.43,16.18-16.76-7.28-13.34-10.96-29.9-10.96-49.55,0-8.99,1.13-20.35,3.37-33.78Z"/>
          <path d="M355.82,94.67h-56.24c-6.6,0-10.23,3.3-11.41,10.37l-5.02,28.79c-.56,3.24-.21,5.64,1.03,7.11,1.26,1.5,3.63,2.26,7.04,2.26h20.78l-6.31,36.34-1.18.36c-4.62,1.39-10.67,2.09-17.97,2.09-15.57,0-27.3-3.13-34.88-9.32-7.7-6.28-11.61-16.76-11.61-31.16,0-6.1.68-13.3,2.04-21.4,4.09-22.7,11.57-38.74,22.26-47.7,10.69-8.97,27.16-13.51,48.96-13.51,13.12,0,26.08,2.41,38.52,7.16,3.47,1.35,6.39,1.7,8.86,1.04l9.4-53.38c.15-.9.35-1.74.57-2.56-15.28-7.39-35.72-11.15-61.03-11.15-37.71,0-68.58,9.47-91.74,28.16-22.2,17.9-37.27,46.9-44.85,86.22-.14.74-.28,1.47-.42,2.22-.14.74-.27,1.48-.4,2.23-.04.21-.08.41-.11.62-2.2,13.2-3.32,24.34-3.32,33.11,0,17.96,3.18,33.2,9.45,45.6.36.72.72,1.44,1.1,2.13.36.66.74,1.3,1.13,1.95,3.88,6.56,8.71,12.26,14.52,17.01,17.5,14.35,42.12,21.63,73.17,21.63,24.57,0,46.08-3.21,64.25-9.56-.14-1.46-.07-3.07.22-4.83l23.21-131.82Z"/>
          <path d="M532.83,19.39c-14.98-10.2-37.22-15.38-66.12-15.38h-81.29c-4.71,0-7.9,1.69-9.77,5.22-.3.56-.57,1.17-.8,1.83-.22.62-.41,1.27-.57,1.97-.1.43-.19.88-.27,1.35l-8.77,49.79-.56,3.2-.46,2.61-3.64,20.69-.35,2-.35,2-23.33,132.5c-.16.98-.23,1.87-.23,2.7,0,.75.07,1.44.2,2.07.15.7.38,1.32.7,1.86.14.23.29.44.45.64,1.36,1.61,3.93,2.43,7.61,2.43h48.17c3.69,0,6.33-.72,7.83-2.13,1.58-1.48,2.79-4.28,3.59-8.3l9.32-52.46h28.77c32.64,0,58.3-6.68,76.26-19.85,17.87-13.11,29.37-35.12,34.17-65.44,1.09-8.08,1.65-14.86,1.65-20.09,0-22.61-7.47-39.16-22.21-49.2ZM484.4,89.39c-1.62,9.98-5.3,17.33-10.93,21.75-5.58,4.39-13.82,6.62-24.49,6.62h-25.14l10.43-57.53h24.42c9.21,0,15.77,1.49,20.06,4.55,4.44,3.17,6.69,8.28,6.69,15.18,0,2.8-.35,5.97-1.04,9.42Z"/>
        </g>
        <text class="cls-1" transform="translate(590.4 141.44)"><tspan x="0" y="0">Sis</tspan><tspan class="cls-2" x="129.53" y="0">t</tspan><tspan x="165.48" y="0">ema de</tspan><tspan x="0" y="96">Ges</tspan><tspan class="cls-2" x="179.35" y="96">t</tspan><tspan class="cls-5" x="215.31" y="96">ão de P</tspan><tspan class="cls-6" x="565.4" y="96">r</tspan><tspan x="601.15" y="96">oje</tspan><tspan class="cls-7" x="739.89" y="96">t</tspan><tspan class="cls-3" x="775.84" y="96">o</tspan><tspan class="cls-4" x="835.09" y="96">s</tspan></text>
        <rect x="591.68" y="14.39" width="500.64" height="6.36" rx="3.18" ry="3.18"/>
        <circle cx="606.72" cy="18.64" r="15.04"/>
        <circle cx="716.3" cy="18.64" r="15.04"/>
        <circle cx="1081.58" cy="18.64" r="15.04"/>
      </g>
    </g>
  </g>
</svg>